
<svg width="424px" height="416px" viewBox="0 0 424 416" version="1.1" xmlns="http://www.w3.org/2000/svg" xmlns:xlink="http://www.w3.org/1999/xlink">
    <!-- Generator: Sketch 43.1 (39012) - http://www.bohemiancoding.com/sketch -->
    <desc>Created with Sketch.</desc>
    <defs></defs>
    <g id="Symbols" stroke="none" stroke-width="1" fill="none" fill-rule="evenodd">
        <g id="bihu" fill="#AA6708">
            <path d="M387.789062,38.0273437 C387.789062,38.0273437 387.789062,67.9726562 379.386719,95.7890625 C370.984375,123.605469 332.574219,167.269531 332.574219,167.269531 C332.574219,167.269531 340.178804,179.986011 343.382812,192.652344 C346.388267,204.533739 348.164062,216.78125 348.164062,216.78125 L423.503906,208.871094 C423.503906,208.871094 410.861184,242.874066 387.789062,254.816406 C364.716941,266.758746 343.382812,266.269531 343.382812,266.269531 C343.382812,266.269531 342.881898,293.554617 332.574219,317.929688 C322.266539,342.304758 302.515625,362.910156 302.515625,362.910156 C302.515625,362.910156 318.212413,375.530329 327.527344,387.332031 C336.842274,399.133733 343.382812,406.96875 343.382812,406.96875 L222.417969,414.6875 C222.417969,414.6875 157.421875,418.601562 122.820312,406.96875 C88.21875,395.335938 58.8133036,377.327002 34.3867187,345.242188 C9.96013387,313.157373 0.78125,246.667969 0.78125,246.667969 C0.78125,246.667969 21.1015625,304.679688 45.3789062,324.488281 C69.65625,344.296875 100.718208,348.961774 127.546875,345.242188 C153.684743,341.618375 172.613281,330.195313 186.269531,294.71875 C199.925781,259.242187 186.269531,216.78125 186.269531,216.78125 C186.269531,216.78125 160.523437,177.789062 148.59375,136.289063 C136.664062,94.7890625 169.558594,24.34375 169.558594,24.34375 C169.558594,24.34375 226.03125,-7.28125 297.898437,3.03125 C369.765625,13.34375 387.789062,38.0273437 387.789062,38.0273437 Z" id="Path-2"></path>
        </g>
    </g>
</svg>
